<svg xmlns="http://www.w3.org/2000/svg" xlink="http://www.w3.org/1999/xlink" id="mind-svg-con" version="1.1" width="1467px" height="915.3720703125px" style="position: absolute; left: 0px; top: 0px; width: 1467px; height: 915.37207px; background: rgb(250, 250, 250); z-index: 999;"><defs></defs><g id="svgbackgroundid"><defs></defs><rect x="0" y="0" width="1467" height="915.3720703125" fill="#fafafa"></rect></g><g transform="translate(-9917, -9502.5)" id="sdjakdjak3"><defs></defs><g class="svg-topic-con" transform="translate(0.5,0.5)"><path part="right" sub="true" id="line_81d9f5ea01439c2e" d="M 10000 9938 L 10000 9728 A 8 8 0 0 1 10008 9720 L 10113 9720" stroke="rgb(170,170,170)" fill="none" stroke-width="1"></path><path part="right" sub="true" id="line_2bc15334fcb9" d="M 10000 9938 L 10000 10130.5 A 8 8 0 0 0 10008 10138.5 L 10113 10138.5" stroke="rgb(170,170,170)" fill="none" stroke-width="1"></path></g><g class="svg-connection-con" transform="translate(0.5,0.5)"><g id="line_6100ddafc2f6560f" class="connection-svg"><path fill="none" d="M 10571.5625 10308.5C 10561.765625 10441 9855 10424 9989.4 9971" class="connection-line" stroke-linejoin="round" stroke="rgb(113, 203, 45)" stroke-width="2"></path><path class="connection-end-arrow" fill="rgb(113, 203, 45)" stroke="rgb(113, 203, 45)" stroke-width="2" d="M9989.4 9971 L9991.7302055737 9980.724718092793 M9989.4 9971 L9982.143249873849 9977.88037626926 Z"></path><path class="connection-start-arrow" fill="rgb(113, 203, 45)" stroke="rgb(113, 203, 45)" stroke-width="2" d="M10571.5625 10308.5 Z"></path></g><g id="line_8fbaeb609fb33ab7" class="connection-svg"><path fill="none" d="M 10714.859375 10051C 11438 10058 10956 10535 10490.75 10341" class="connection-line" stroke-linejoin="round" stroke="rgb(113, 203, 45)" stroke-width="2"></path><path class="connection-end-arrow" fill="rgb(113, 203, 45)" stroke="rgb(113, 203, 45)" stroke-width="2" d="M10490.75 10341 L10500.66750025438 10339.718130777199 M10490.75 10341 L10496.818881438467 10348.94787255093 Z"></path><path class="connection-start-arrow" fill="rgb(113, 203, 45)" stroke="rgb(113, 203, 45)" stroke-width="2" d="M10714.859375 10051 Z"></path></g></g><g class="svg-freesums-con" transform="translate(0.5,0.5)"></g><g class="svg-freebos-con" transform="translate(0.5,0.5)"></g></g><g id="81d9f5ea01439c2e"><rect x="196" y="196" rx="5px" ry="5px" width="174" height="43" style="fill: #ffffff; stroke:rgb(187,187,187);stroke-width:1px;"></rect><g><text text-anchor="start" align="top" anchor="start" font-size="17px" font-weight="normal" fill="rgb(68, 68, 68)" style="font-size:17px;font-family:微软雅黑;color:rgb(68,68,68);font-style:normal;text-align:left;font-weight:normal;"><tspan x="209" y="224"><tspan dx="0">node_name(node)</tspan></tspan></text></g></g><g id="748d46800c9f4387"><rect x="400.03125" y="30" rx="1px" ry="1px" width="76" height="25" style="fill: transparent; stroke:none;stroke-width:0px;"></rect><g><text text-anchor="start" align="top" anchor="start" font-size="13px" font-weight="normal" fill="rgb(68, 68, 68)" style="font-size:13px;font-family:微软雅黑;color:rgb(68,68,68);font-style:normal;text-align:left;font-weight:normal;"><tspan x="409" y="47"><tspan dx="0">selector *</tspan></tspan></text></g></g><g id="12256902a95f98a1"><rect x="400.03125" y="82" rx="1px" ry="1px" width="40" height="25" style="fill: transparent; stroke:none;stroke-width:0px;"></rect><g><text text-anchor="start" align="top" anchor="start" font-size="13px" font-weight="normal" fill="rgb(68, 68, 68)" style="font-size:13px;font-family:微软雅黑;color:rgb(68,68,68);font-style:normal;text-align:left;font-weight:normal;"><tspan x="409" y="99"><tspan dx="0">attr</tspan></tspan></text></g></g><g id="2b0d99f9234b5738"><rect x="469.875" y="65" rx="1px" ry="1px" width="132" height="25" style="fill: transparent; stroke:none;stroke-width:0px;"></rect><g><text text-anchor="start" align="top" anchor="start" font-size="13px" font-weight="normal" fill="rgb(68, 68, 68)" style="font-size:13px;font-family:微软雅黑;color:rgb(68,68,68);font-style:normal;text-align:left;font-weight:normal;"><tspan x="479" y="82"><tspan dx="0">Element attributes</tspan></tspan></text></g></g><g id="f6f0852cdf01a97f"><rect x="469.875" y="100" rx="1px" ry="1px" width="47" height="25" style="fill: transparent; stroke:none;stroke-width:0px;"></rect><g><text text-anchor="start" align="top" anchor="start" font-size="13px" font-weight="normal" fill="rgb(68, 68, 68)" style="font-size:13px;font-family:微软雅黑;color:rgb(68,68,68);font-style:normal;text-align:left;font-weight:normal;"><tspan x="479" y="117"><tspan dx="0">html</tspan></tspan></text></g></g><g id="d461439a6cef174b"><rect x="546.375" y="100" rx="1px" ry="1px" width="219" height="25" style="fill: transparent; stroke:none;stroke-width:0px;"></rect><g><text text-anchor="start" align="top" anchor="start" font-size="13px" font-weight="normal" fill="rgb(68, 68, 68)" style="font-size:13px;font-family:微软雅黑;color:rgb(68,68,68);font-style:normal;text-align:left;font-weight:normal;"><tspan x="555" y="117"><tspan dx="0">special attributes, retrieve HTML</tspan></tspan></text></g></g><g id="a54902a3b513da17"><rect x="400.03125" y="152" rx="1px" ry="1px" width="97" height="25" style="fill: transparent; stroke:none;stroke-width:0px;"></rect><g><text text-anchor="start" align="top" anchor="start" font-size="13px" font-weight="normal" fill="rgb(68, 68, 68)" style="font-size:13px;font-family:微软雅黑;color:rgb(68,68,68);font-style:normal;text-align:left;font-weight:normal;"><tspan x="409" y="169"><tspan dx="0">after_regular</tspan></tspan></text></g></g><g id="2090e975ad695e0d"><rect x="526.984375" y="135" rx="1px" ry="1px" width="52" height="25" style="fill: transparent; stroke:none;stroke-width:0px;"></rect><g><text text-anchor="start" align="top" anchor="start" font-size="13px" font-weight="normal" fill="rgb(68, 68, 68)" style="font-size:13px;font-family:微软雅黑;color:rgb(68,68,68);font-style:normal;text-align:left;font-weight:normal;"><tspan x="536" y="152"><tspan dx="0">regex</tspan></tspan></text></g></g><g id="0661fc9dbef9fc7e"><rect x="526.984375" y="170" rx="1px" ry="1px" width="63" height="25" style="fill: transparent; stroke:none;stroke-width:0px;"></rect><g><text text-anchor="start" align="top" anchor="start" font-size="13px" font-weight="normal" fill="rgb(68, 68, 68)" style="font-size:13px;font-family:微软雅黑;color:rgb(68,68,68);font-style:normal;text-align:left;font-weight:normal;"><tspan x="536" y="187"><tspan dx="0">replace</tspan></tspan></text></g></g><g id="ccae468428e4071c"><rect x="625.984375" y="152.5" rx="1px" ry="1px" width="212" height="25" style="fill: transparent; stroke:none;stroke-width:0px;"></rect><g><text text-anchor="start" align="top" anchor="start" font-size="13px" font-weight="normal" fill="rgb(68, 68, 68)" style="font-size:13px;font-family:微软雅黑;color:rgb(68,68,68);font-style:normal;text-align:left;font-weight:normal;"><tspan x="632" y="170"><tspan dx="0">{ regex: string; replace: string; }[]</tspan></tspan></text></g></g><g id="ef06919bff968d5e"><rect x="400.03125" y="222" rx="1px" ry="1px" width="64" height="25" style="fill: transparent; stroke:none;stroke-width:0px;"></rect><g><text text-anchor="start" align="top" anchor="start" font-size="13px" font-weight="normal" fill="rgb(68, 68, 68)" style="font-size:13px;font-family:微软雅黑;color:rgb(68,68,68);font-style:normal;text-align:left;font-weight:normal;"><tspan x="409" y="239"><tspan dx="0">is_array</tspan></tspan></text></g></g><g id="9a867c048985f2e6"><rect x="494.515625" y="205" rx="1px" ry="1px" width="47" height="25" style="fill: transparent; stroke:none;stroke-width:0px;"></rect><g><text text-anchor="start" align="top" anchor="start" font-size="13px" font-weight="normal" fill="rgb(68, 68, 68)" style="font-size:13px;font-family:微软雅黑;color:rgb(68,68,68);font-style:normal;text-align:left;font-weight:normal;"><tspan x="504" y="222"><tspan dx="0">false</tspan></tspan></text></g></g><g id="98ed72989de9a8c1"><rect x="494.515625" y="240" rx="1px" ry="1px" width="43" height="25" style="fill: transparent; stroke:none;stroke-width:0px;"></rect><g><text text-anchor="start" align="top" anchor="start" font-size="13px" font-weight="normal" fill="rgb(68, 68, 68)" style="font-size:13px;font-family:微软雅黑;color:rgb(68,68,68);font-style:normal;text-align:left;font-weight:normal;"><tspan x="504" y="257"><tspan dx="0">true</tspan></tspan></text></g></g><g id="5f994eec0f01130f"><rect x="567.71875" y="240" rx="1px" ry="1px" width="304" height="25" style="fill: transparent; stroke:none;stroke-width:0px;"></rect><g><text text-anchor="start" align="top" anchor="start" font-size="13px" font-weight="normal" fill="rgb(68, 68, 68)" style="font-size:13px;font-family:微软雅黑;color:rgb(68,68,68);font-style:normal;text-align:left;font-weight:normal;"><tspan x="577" y="257"><tspan dx="0">js code like: $('.classname').map(el =&gt; el.val() )</tspan></tspan></text></g></g><g id="b973987b1329cd34"><rect x="400.03125" y="275" rx="1px" ry="1px" width="66" height="25" style="fill: transparent; stroke:none;stroke-width:0px;"></rect><g><text text-anchor="start" align="top" anchor="start" font-size="13px" font-weight="normal" fill="rgb(68, 68, 68)" style="font-size:13px;font-family:微软雅黑;color:rgb(68,68,68);font-style:normal;text-align:left;font-weight:normal;"><tspan x="409" y="292"><tspan dx="0">split_str</tspan></tspan></text></g></g><g id="95a8deacce18617c"><rect x="501.765625" y="275" rx="1px" ry="1px" width="299" height="25" style="fill: transparent; stroke:none;stroke-width:0px;"></rect><g><text text-anchor="start" align="top" anchor="start" font-size="13px" font-weight="normal" fill="rgb(68, 68, 68)" style="font-size:13px;font-family:微软雅黑;color:rgb(68,68,68);font-style:normal;text-align:left;font-weight:normal;"><tspan x="508" y="292"><tspan dx="0">js code like: value.split(split_str), return string[]</tspan></tspan></text></g></g><g id="976006d9d316a686"><rect x="400.03125" y="310" rx="1px" ry="1px" width="103" height="25" style="fill: transparent; stroke:none;stroke-width:0px;"></rect><g><text text-anchor="start" align="top" anchor="start" font-size="13px" font-weight="normal" fill="rgb(68, 68, 68)" style="font-size:13px;font-family:微软雅黑;color:rgb(68,68,68);font-style:normal;text-align:left;font-weight:normal;"><tspan x="409" y="327"><tspan dx="0">to_markdown</tspan></tspan></text></g></g><g id="d3b5418d186fb40a"><rect x="532.9375" y="310" rx="1px" ry="1px" width="203" height="25" style="fill: transparent; stroke:none;stroke-width:0px;"></rect><g><text text-anchor="start" align="top" anchor="start" font-size="13px" font-weight="normal" fill="rgb(68, 68, 68)" style="font-size:13px;font-family:微软雅黑;color:rgb(68,68,68);font-style:normal;text-align:left;font-weight:normal;"><tspan x="542" y="327"><tspan dx="0">Do not forget set { attr: html }</tspan></tspan></text></g></g><g id="5c86d46ff933d0ed"><rect x="400.03125" y="345" rx="1px" ry="1px" width="40" height="25" style="fill: transparent; stroke:none;stroke-width:0px;"></rect><g><text text-anchor="start" align="top" anchor="start" font-size="13px" font-weight="normal" fill="rgb(68, 68, 68)" style="font-size:13px;font-family:微软雅黑;color:rgb(68,68,68);font-style:normal;text-align:left;font-weight:normal;"><tspan x="409" y="362"><tspan dx="0">to_i</tspan></tspan></text></g></g><g id="5a5cc0826857011a"><rect x="400.03125" y="380" rx="1px" ry="1px" width="41" height="25" style="fill: transparent; stroke:none;stroke-width:0px;"></rect><g><text text-anchor="start" align="top" anchor="start" font-size="13px" font-weight="normal" fill="rgb(68, 68, 68)" style="font-size:13px;font-family:微软雅黑;color:rgb(68,68,68);font-style:normal;text-align:left;font-weight:normal;"><tspan x="409" y="397"><tspan dx="0">to_f</tspan></tspan></text></g></g><g id="92449585b2371510"><rect x="477.375" y="362.5" rx="1px" ry="1px" width="64" height="25" style="fill: transparent; stroke:none;stroke-width:0px;"></rect><g><text text-anchor="start" align="top" anchor="start" font-size="13px" font-weight="normal" fill="rgb(68, 68, 68)" style="font-size:13px;font-family:微软雅黑;color:rgb(68,68,68);font-style:normal;text-align:left;font-weight:normal;"><tspan x="483" y="380"><tspan dx="0">only key</tspan></tspan></text></g></g><g id="2bc15334fcb9"><rect x="196" y="614" rx="5px" ry="5px" width="199" height="43" style="fill: #ffffff; stroke:rgb(187,187,187);stroke-width:1px;"></rect><g><text text-anchor="start" align="top" anchor="start" font-size="17px" font-weight="normal" fill="rgb(68, 68, 68)" style="font-size:17px;font-family:微软雅黑;color:rgb(68,68,68);font-style:normal;text-align:left;font-weight:normal;"><tspan x="209" y="642"><tspan dx="0">node_name(wrapper)</tspan></tspan></text></g></g><g id="fe2b687c43a09f57"><rect x="425.390625" y="448" rx="1px" ry="1px" width="69" height="25" style="fill: transparent; stroke:none;stroke-width:0px;"></rect><g><text text-anchor="start" align="top" anchor="start" font-size="13px" font-weight="normal" fill="rgb(68, 68, 68)" style="font-size:13px;font-family:微软雅黑;color:rgb(68,68,68);font-style:normal;text-align:left;font-weight:normal;"><tspan x="434" y="465"><tspan dx="0">position</tspan></tspan></text></g></g><g id="37d52b63e2541d46"><rect x="524.015625" y="431" rx="1px" ry="1px" width="47" height="25" style="fill: transparent; stroke:none;stroke-width:0px;"></rect><g><text text-anchor="start" align="top" anchor="start" font-size="13px" font-weight="normal" fill="rgb(68, 68, 68)" style="font-size:13px;font-family:微软雅黑;color:rgb(68,68,68);font-style:normal;text-align:left;font-weight:normal;"><tspan x="533" y="448"><tspan dx="0">false</tspan></tspan></text></g></g><g id="a30e61496d06a6e5"><rect x="524.015625" y="466" rx="1px" ry="1px" width="43" height="25" style="fill: transparent; stroke:none;stroke-width:0px;"></rect><g><text text-anchor="start" align="top" anchor="start" font-size="13px" font-weight="normal" fill="rgb(68, 68, 68)" style="font-size:13px;font-family:微软雅黑;color:rgb(68,68,68);font-style:normal;text-align:left;font-weight:normal;"><tspan x="533" y="483"><tspan dx="0">true</tspan></tspan></text></g></g><g id="ed487f28fdf7957f"><rect x="606.5625" y="448.5" rx="1px" ry="1px" width="112" height="25" style="fill: transparent; stroke:none;stroke-width:0px;"></rect><g><text text-anchor="start" align="top" anchor="start" font-size="13px" font-weight="normal" fill="rgb(68, 68, 68)" style="font-size:13px;font-family:微软雅黑;color:rgb(68,68,68);font-style:normal;text-align:left;font-weight:normal;"><tspan x="613" y="466"><tspan dx="0">enable position </tspan></tspan></text></g></g><g id="2a36d6fd9b3a42a6"><rect x="425.390625" y="501" rx="1px" ry="1px" width="158" height="25" style="fill: transparent; stroke:none;stroke-width:0px;"></rect><g><text text-anchor="start" align="top" anchor="start" font-size="13px" font-weight="normal" fill="rgb(68, 68, 68)" style="font-size:13px;font-family:微软雅黑;color:rgb(68,68,68);font-style:normal;text-align:left;font-weight:normal;"><tspan x="434" y="518"><tspan dx="0">remove_children_node</tspan></tspan></text></g></g><g id="ab8e97477d2bdd6a"><rect x="613.65625" y="501" rx="1px" ry="1px" width="67" height="25" style="fill: transparent; stroke:none;stroke-width:0px;"></rect><g><text text-anchor="start" align="top" anchor="start" font-size="13px" font-weight="normal" fill="rgb(68, 68, 68)" style="font-size:13px;font-family:微软雅黑;color:rgb(68,68,68);font-style:normal;text-align:left;font-weight:normal;"><tspan x="623" y="518"><tspan dx="0">selector</tspan></tspan></text></g></g><g id="e57b68b5f8cf6b2d"><rect x="716.375" y="501" rx="1px" ry="1px" width="119" height="25" style="fill: transparent; stroke:none;stroke-width:0px;"></rect><g><text text-anchor="start" align="top" anchor="start" font-size="13px" font-weight="normal" fill="rgb(68, 68, 68)" style="font-size:13px;font-family:微软雅黑;color:rgb(68,68,68);font-style:normal;text-align:left;font-weight:normal;"><tspan x="722" y="518"><tspan dx="0">remove Elements</tspan></tspan></text></g></g><g id="0d82afcd429a05fe"><rect x="425.390625" y="588" rx="1px" ry="1px" width="91" height="25" style="fill: transparent; stroke:none;stroke-width:0px;"></rect><g><text text-anchor="start" align="top" anchor="start" font-size="13px" font-weight="normal" fill="rgb(68, 68, 68)" style="font-size:13px;font-family:微软雅黑;color:rgb(68,68,68);font-style:normal;text-align:left;font-weight:normal;"><tspan x="434" y="605"><tspan dx="0">other_types</tspan></tspan></text></g></g><g id="5ba04a6abf3ddce3"><rect x="546.09375" y="536" rx="1px" ry="1px" width="53" height="25" style="fill: transparent; stroke:none;stroke-width:0px;"></rect><g><text text-anchor="start" align="top" anchor="start" font-size="13px" font-weight="normal" fill="rgb(68, 68, 68)" style="font-size:13px;font-family:微软雅黑;color:rgb(68,68,68);font-style:normal;text-align:left;font-weight:normal;"><tspan x="555" y="553"><tspan dx="0">name</tspan></tspan></text></g></g><g id="179d70956f5477f0"><rect x="634.859375" y="536" rx="1px" ry="1px" width="163" height="25" style="fill: transparent; stroke:none;stroke-width:0px;"></rect><g><text text-anchor="start" align="top" anchor="start" font-size="13px" font-weight="normal" fill="rgb(68, 68, 68)" style="font-size:13px;font-family:微软雅黑;color:rgb(68,68,68);font-style:normal;text-align:left;font-weight:normal;"><tspan x="641" y="553"><tspan dx="0">eg. store (can be others)</tspan></tspan></text></g></g><g id="996dd54928730170"><rect x="546.09375" y="588" rx="1px" ry="1px" width="66" height="25" style="fill: transparent; stroke:none;stroke-width:0px;"></rect><g><text text-anchor="start" align="top" anchor="start" font-size="13px" font-weight="normal" fill="rgb(68, 68, 68)" style="font-size:13px;font-family:微软雅黑;color:rgb(68,68,68);font-style:normal;text-align:left;font-weight:normal;"><tspan x="555" y="605"><tspan dx="0">validate</tspan></tspan></text></g></g><g id="088470de86dbbd74"><rect x="642.390625" y="571" rx="1px" ry="1px" width="67" height="25" style="fill: transparent; stroke:none;stroke-width:0px;"></rect><g><text text-anchor="start" align="top" anchor="start" font-size="13px" font-weight="normal" fill="rgb(68, 68, 68)" style="font-size:13px;font-family:微软雅黑;color:rgb(68,68,68);font-style:normal;text-align:left;font-weight:normal;"><tspan x="651" y="588"><tspan dx="0">selector</tspan></tspan></text></g></g><g id="19cdb5d2e0b1e66f"><rect x="745.109375" y="571" rx="1px" ry="1px" width="121" height="25" style="fill: transparent; stroke:none;stroke-width:0px;"></rect><g><text text-anchor="start" align="top" anchor="start" font-size="13px" font-weight="normal" fill="rgb(68, 68, 68)" style="font-size:13px;font-family:微软雅黑;color:rgb(68,68,68);font-style:normal;text-align:left;font-weight:normal;"><tspan x="751" y="588"><tspan dx="0">Contains Element</tspan></tspan></text></g></g><g id="de3e46a26a9ff6d5"><rect x="642.390625" y="606" rx="1px" ry="1px" width="59" height="25" style="fill: transparent; stroke:none;stroke-width:0px;"></rect><g><text text-anchor="start" align="top" anchor="start" font-size="13px" font-weight="normal" fill="rgb(68, 68, 68)" style="font-size:13px;font-family:微软雅黑;color:rgb(68,68,68);font-style:normal;text-align:left;font-weight:normal;"><tspan x="651" y="623"><tspan dx="0">except</tspan></tspan></text></g></g><g id="476d6852acfbc0e0"><rect x="731.296875" y="606" rx="1px" ry="1px" width="185" height="25" style="fill: transparent; stroke:none;stroke-width:0px;"></rect><g><text text-anchor="start" align="top" anchor="start" font-size="13px" font-weight="normal" fill="rgb(68, 68, 68)" style="font-size:13px;font-family:微软雅黑;color:rgb(68,68,68);font-style:normal;text-align:left;font-weight:normal;"><tspan x="740" y="623"><tspan dx="0">this value is be css selector</tspan></tspan></text></g></g><g id="23163b4bed1058ed"><rect x="951.890625" y="606" rx="1px" ry="1px" width="178" height="25" style="fill: transparent; stroke:none;stroke-width:0px;"></rect><g><text text-anchor="start" align="top" anchor="start" font-size="13px" font-weight="normal" fill="rgb(68, 68, 68)" style="font-size:13px;font-family:微软雅黑;color:rgb(68,68,68);font-style:normal;text-align:left;font-weight:normal;"><tspan x="958" y="623"><tspan dx="0">Does Not Contain Element</tspan></tspan></text></g></g><g id="c93a4d1e2881a842"><rect x="546.09375" y="641" rx="1px" ry="1px" width="65" height="25" style="fill: transparent; stroke:none;stroke-width:0px;"></rect><g><text text-anchor="start" align="top" anchor="start" font-size="13px" font-weight="normal" fill="rgb(68, 68, 68)" style="font-size:13px;font-family:微软雅黑;color:rgb(68,68,68);font-style:normal;text-align:left;font-weight:normal;"><tspan x="555" y="658"><tspan dx="0">rename</tspan></tspan></text></g></g><g id="8fc088d7c14e9c7e"><rect x="647.015625" y="641" rx="1px" ry="1px" width="191" height="25" style="fill: transparent; stroke:none;stroke-width:0px;"></rect><g><text text-anchor="start" align="top" anchor="start" font-size="13px" font-weight="normal" fill="rgb(68, 68, 68)" style="font-size:13px;font-family:微软雅黑;color:rgb(68,68,68);font-style:normal;text-align:left;font-weight:normal;"><tspan x="653" y="658"><tspan dx="0">just like normal for overwrite</tspan></tspan></text></g></g><g id="ab96669a791b0ad9"><rect x="868.328125" y="641" rx="1px" ry="1px" width="296" height="25" style="fill: transparent; stroke:none;stroke-width:0px;"></rect><g><text text-anchor="start" align="top" anchor="start" font-size="13px" font-weight="normal" fill="rgb(68, 68, 68)" style="font-size:13px;font-family:微软雅黑;color:rgb(68,68,68);font-style:normal;text-align:left;font-weight:normal;"><tspan x="877" y="658"><tspan dx="0">Useful in specific complex selector scenarios.</tspan></tspan></text></g></g><g id="6547c9c75c4f"><rect x="425.390625" y="746" rx="1px" ry="1px" width="69" height="25" style="fill: transparent; stroke:none;stroke-width:0px;"></rect><g><text text-anchor="start" align="top" anchor="start" font-size="13px" font-weight="normal" fill="rgb(68, 68, 68)" style="font-size:13px;font-family:微软雅黑;color:rgb(68,68,68);font-style:normal;text-align:left;font-weight:normal;"><tspan x="434" y="763"><tspan dx="0">wrapper</tspan></tspan></text></g></g><g id="6fe58db41496d660"><rect x="524.75" y="693" rx="1px" ry="1px" width="46" height="25" style="fill: transparent; stroke:none;stroke-width:0px;"></rect><g><text text-anchor="start" align="top" anchor="start" font-size="13px" font-weight="normal" fill="rgb(68, 68, 68)" style="font-size:13px;font-family:微软雅黑;color:rgb(68,68,68);font-style:normal;text-align:left;font-weight:normal;"><tspan x="534" y="710"><tspan dx="0">list *</tspan></tspan></text></g></g><g id="2b63b2d845770015"><rect x="600.296875" y="676" rx="1px" ry="1px" width="47" height="25" style="fill: transparent; stroke:none;stroke-width:0px;"></rect><g><text text-anchor="start" align="top" anchor="start" font-size="13px" font-weight="normal" fill="rgb(68, 68, 68)" style="font-size:13px;font-family:微软雅黑;color:rgb(68,68,68);font-style:normal;text-align:left;font-weight:normal;"><tspan x="609" y="693"><tspan dx="0">false</tspan></tspan></text></g></g><g id="94a02ff391bc632e"><rect x="676.84375" y="676" rx="1px" ry="1px" width="99" height="25" style="fill: transparent; stroke:none;stroke-width:0px;"></rect><g><text text-anchor="start" align="top" anchor="start" font-size="13px" font-weight="normal" fill="rgb(68, 68, 68)" style="font-size:13px;font-family:微软雅黑;color:rgb(68,68,68);font-style:normal;text-align:left;font-weight:normal;"><tspan x="686" y="693"><tspan dx="0">return object</tspan></tspan></text></g></g><g id="854d5f7b95b372de"><rect x="600.296875" y="711" rx="1px" ry="1px" width="43" height="25" style="fill: transparent; stroke:none;stroke-width:0px;"></rect><g><text text-anchor="start" align="top" anchor="start" font-size="13px" font-weight="normal" fill="rgb(68, 68, 68)" style="font-size:13px;font-family:微软雅黑;color:rgb(68,68,68);font-style:normal;text-align:left;font-weight:normal;"><tspan x="609" y="728"><tspan dx="0">true</tspan></tspan></text></g></g><g id="388f84d902e87015"><rect x="673.5" y="711" rx="1px" ry="1px" width="91" height="25" style="fill: transparent; stroke:none;stroke-width:0px;"></rect><g><text text-anchor="start" align="top" anchor="start" font-size="13px" font-weight="normal" fill="rgb(68, 68, 68)" style="font-size:13px;font-family:微软雅黑;color:rgb(68,68,68);font-style:normal;text-align:left;font-weight:normal;"><tspan x="683" y="728"><tspan dx="0">return array</tspan></tspan></text></g></g><g id="db7cec40074f37e4"><rect x="524.75" y="746" rx="1px" ry="1px" width="76" height="25" style="fill: transparent; stroke:none;stroke-width:0px;"></rect><g><text text-anchor="start" align="top" anchor="start" font-size="13px" font-weight="normal" fill="rgb(68, 68, 68)" style="font-size:13px;font-family:微软雅黑;color:rgb(68,68,68);font-style:normal;text-align:left;font-weight:normal;"><tspan x="534" y="763"><tspan dx="0">selector *</tspan></tspan></text></g></g><g id="2c75c1df5708ea3c"><rect x="524.75" y="781" rx="1px" ry="1px" width="72" height="25" style="fill: transparent; stroke:none;stroke-width:0px;"></rect><g><text text-anchor="start" align="top" anchor="start" font-size="13px" font-weight="normal" fill="rgb(68, 68, 68)" style="font-size:13px;font-family:微软雅黑;color:rgb(68,68,68);font-style:normal;text-align:left;font-weight:normal;"><tspan x="534" y="798"><tspan dx="0">normal *</tspan></tspan></text></g></g><g id="1e75a8ce5f9aaa11"><rect x="626.5625" y="781" rx="1px" ry="1px" width="56" height="25" style="fill: transparent; stroke:none;stroke-width:0px;"></rect><g><text text-anchor="start" align="top" anchor="start" font-size="13px" font-weight="normal" fill="rgb(68, 68, 68)" style="font-size:13px;font-family:微软雅黑;color:rgb(68,68,68);font-style:normal;text-align:left;font-weight:normal;"><tspan x="636" y="798"><tspan dx="0">nodes</tspan></tspan></text></g></g><g id="1670feed3ea3b2b8"><rect x="718.546875" y="781" rx="1px" ry="1px" width="215" height="25" style="fill: transparent; stroke:none;stroke-width:0px;"></rect><g><text text-anchor="start" align="top" anchor="start" font-size="13px" font-weight="normal" fill="rgb(68, 68, 68)" style="font-size:13px;font-family:微软雅黑;color:rgb(68,68,68);font-style:normal;text-align:left;font-weight:normal;"><tspan x="725" y="798"><tspan dx="0">default type: normal for wrapper</tspan></tspan></text></g></g><g id="2fef5c55987f99b2"><rect x="524.75" y="816" rx="1px" ry="1px" width="49" height="25" style="fill: transparent; stroke:none;stroke-width:0px;"></rect><g><text text-anchor="start" align="top" anchor="start" font-size="13px" font-weight="normal" fill="rgb(68, 68, 68)" style="font-size:13px;font-family:微软雅黑;color:rgb(68,68,68);font-style:normal;text-align:left;font-weight:normal;"><tspan x="534" y="833"><tspan dx="0">store</tspan></tspan></text></g></g><g id="41cfea2100375af5"><rect x="603.9375" y="816" rx="1px" ry="1px" width="56" height="25" style="fill: transparent; stroke:none;stroke-width:0px;"></rect><g><text text-anchor="start" align="top" anchor="start" font-size="13px" font-weight="normal" fill="rgb(68, 68, 68)" style="font-size:13px;font-family:微软雅黑;color:rgb(68,68,68);font-style:normal;text-align:left;font-weight:normal;"><tspan x="613" y="833"><tspan dx="0">nodes</tspan></tspan></text></g></g><g id="6974e225b47c6838"><rect x="695.921875" y="816" rx="1px" ry="1px" width="78" height="25" style="fill: transparent; stroke:none;stroke-width:0px;"></rect><g><text text-anchor="start" align="top" anchor="start" font-size="13px" font-weight="normal" fill="rgb(68, 68, 68)" style="font-size:13px;font-family:微软雅黑;color:rgb(68,68,68);font-style:normal;text-align:left;font-weight:normal;"><tspan x="702" y="833"><tspan dx="0">type: store</tspan></tspan></text></g></g><g transform="translate(196, 30)" id="sdjakdjak0"><g id="subline_81d9f5ea01439c2e" transform="translate(0.5, 0.5)"><path id="line_748d46800c9f4387" d="M 174.03125 187.5 L 193 187.5 L 193 16.7421875 A 4 4 0 0 1 197 12.7421875 L 204.03125 12.7421875" p="81d9f5ea01439c2e" stroke="rgb(140,140,140)" fill="none" stroke-linecap="square" stroke-width="1"></path><path id="line_12256902a95f98a1" d="M 174.03125 187.5 L 193 187.5 L 193 68.7421875 A 4 4 0 0 1 197 64.7421875 L 204.03125 64.7421875" p="81d9f5ea01439c2e" stroke="rgb(140,140,140)" fill="none" stroke-linecap="square" stroke-width="1"></path><path id="line_2b0d99f9234b5738" d="M 243.875 64.7421875 L 262 64.7421875 L 262 51.7421875 A 4 4 0 0 1 266 47.7421875 L 273.875 47.7421875" p="12256902a95f98a1" stroke="rgb(140,140,140)" fill="none" stroke-linecap="square" stroke-width="1"></path><path id="line_f6f0852cdf01a97f" d="M 243.875 64.7421875 L 262 64.7421875 L 262 78.7421875 A 4 4 0 0 0 266 82.7421875 L 273.875 82.7421875" p="12256902a95f98a1" stroke="rgb(140,140,140)" fill="none" stroke-linecap="square" stroke-width="1"></path><path id="line_d461439a6cef174b" d="M 320.375 82.7421875 L 339 82.7421875 L 339 82.7421875 L 350.375 82.7421875" p="f6f0852cdf01a97f" stroke="rgb(140,140,140)" fill="none" stroke-linecap="square" stroke-width="1"></path><path id="line_a54902a3b513da17" d="M 174.03125 187.5 L 193 187.5 L 193 138.7421875 A 4 4 0 0 1 197 134.7421875 L 204.03125 134.7421875" p="81d9f5ea01439c2e" stroke="rgb(140,140,140)" fill="none" stroke-linecap="square" stroke-width="1"></path><path id="line_2090e975ad695e0d" d="M 300.984375 134.7421875 L 319 134.7421875 L 319 121.7421875 A 4 4 0 0 1 323 117.7421875 L 330.984375 117.7421875" p="a54902a3b513da17" stroke="rgb(140,140,140)" fill="none" stroke-linecap="square" stroke-width="1"></path><path id="line_0661fc9dbef9fc7e" d="M 300.984375 134.7421875 L 319 134.7421875 L 319 148.7421875 A 4 4 0 0 0 323 152.7421875 L 330.984375 152.7421875" p="a54902a3b513da17" stroke="rgb(140,140,140)" fill="none" stroke-linecap="square" stroke-width="1"></path><path id="line_ef06919bff968d5e" d="M 174.03125 187.5 L 193 187.5 L 193 200.7421875 A 4 4 0 0 0 197 204.7421875 L 204.03125 204.7421875" p="81d9f5ea01439c2e" stroke="rgb(140,140,140)" fill="none" stroke-linecap="square" stroke-width="1"></path><path id="line_9a867c048985f2e6" d="M 268.515625 204.7421875 L 287 204.7421875 L 287 191.7421875 A 4 4 0 0 1 291 187.7421875 L 298.515625 187.7421875" p="ef06919bff968d5e" stroke="rgb(140,140,140)" fill="none" stroke-linecap="square" stroke-width="1"></path><path id="line_98ed72989de9a8c1" d="M 268.515625 204.7421875 L 287 204.7421875 L 287 218.7421875 A 4 4 0 0 0 291 222.7421875 L 298.515625 222.7421875" p="ef06919bff968d5e" stroke="rgb(140,140,140)" fill="none" stroke-linecap="square" stroke-width="1"></path><path id="line_5f994eec0f01130f" d="M 341.71875 222.7421875 L 360 222.7421875 L 360 222.7421875 L 371.71875 222.7421875" p="98ed72989de9a8c1" stroke="rgb(140,140,140)" fill="none" stroke-linecap="square" stroke-width="1"></path><path id="line_b973987b1329cd34" d="M 174.03125 187.5 L 193 187.5 L 193 253.7421875 A 4 4 0 0 0 197 257.7421875 L 204.03125 257.7421875" p="81d9f5ea01439c2e" stroke="rgb(140,140,140)" fill="none" stroke-linecap="square" stroke-width="1"></path><path id="line_976006d9d316a686" d="M 174.03125 187.5 L 193 187.5 L 193 288.7421875 A 4 4 0 0 0 197 292.7421875 L 204.03125 292.7421875" p="81d9f5ea01439c2e" stroke="rgb(140,140,140)" fill="none" stroke-linecap="square" stroke-width="1"></path><path id="line_d3b5418d186fb40a" d="M 306.9375 292.7421875 L 325 292.7421875 L 325 292.7421875 L 336.9375 292.7421875" p="976006d9d316a686" stroke="rgb(140,140,140)" fill="none" stroke-linecap="square" stroke-width="1"></path><path id="line_5c86d46ff933d0ed" d="M 174.03125 187.5 L 193 187.5 L 193 323.7421875 A 4 4 0 0 0 197 327.7421875 L 204.03125 327.7421875" p="81d9f5ea01439c2e" stroke="rgb(140,140,140)" fill="none" stroke-linecap="square" stroke-width="1"></path><path id="line_5a5cc0826857011a" d="M 174.03125 187.5 L 193 187.5 L 193 358.7421875 A 4 4 0 0 0 197 362.7421875 L 204.03125 362.7421875" p="81d9f5ea01439c2e" stroke="rgb(140,140,140)" fill="none" stroke-linecap="square" stroke-width="1"></path></g><g transform="translate(0.5,0.5)"></g><g class="svg-summary-con" transform="translate(0.5,0.5)"><path id="sum_ccae468428e4071c" fill="none" stroke="#bf1e1b" stroke-width="1" d=" M 411 109 C 428 113 403 130 425 135 M 411 161 C 428 157 403 140 425 135" stroke-linecap="round"></path><path id="sum_95a8deacce18617c" fill="none" stroke="#bf1e1b" stroke-width="1" d=" M 287 249 C 299 250 284 255 298 257 M 287 266 C 299 265 284 259 298 257" stroke-linecap="round"></path><path id="sum_92449585b2371510" fill="none" stroke="#bf1e1b" stroke-width="1" d=" M 263 319 C 280 323 255 340 277 345 M 263 371 C 280 367 255 350 277 345" stroke-linecap="round"></path></g><g class="svg-boundary-con" transform="translate(0.5,0.5)"></g></g><g transform="translate(196, 431)" id="sdjakdjak1"><g id="subline_2bc15334fcb9" transform="translate(0.5, 0.5)"><path id="line_fe2b687c43a09f57" d="M 199.390625 205 L 218 205 L 218 33.7421875 A 4 4 0 0 1 222 29.7421875 L 229.390625 29.7421875" p="2bc15334fcb9" stroke="rgb(140,140,140)" fill="none" stroke-linecap="square" stroke-width="1"></path><path id="line_37d52b63e2541d46" d="M 298.015625 29.7421875 L 317 29.7421875 L 317 16.7421875 A 4 4 0 0 1 321 12.7421875 L 328.015625 12.7421875" p="fe2b687c43a09f57" stroke="rgb(140,140,140)" fill="none" stroke-linecap="square" stroke-width="1"></path><path id="line_a30e61496d06a6e5" d="M 298.015625 29.7421875 L 317 29.7421875 L 317 43.7421875 A 4 4 0 0 0 321 47.7421875 L 328.015625 47.7421875" p="fe2b687c43a09f57" stroke="rgb(140,140,140)" fill="none" stroke-linecap="square" stroke-width="1"></path><path id="line_2a36d6fd9b3a42a6" d="M 199.390625 205 L 218 205 L 218 86.7421875 A 4 4 0 0 1 222 82.7421875 L 229.390625 82.7421875" p="2bc15334fcb9" stroke="rgb(140,140,140)" fill="none" stroke-linecap="square" stroke-width="1"></path><path id="line_ab8e97477d2bdd6a" d="M 387.65625 82.7421875 L 406 82.7421875 L 406 82.7421875 L 417.65625 82.7421875" p="2a36d6fd9b3a42a6" stroke="rgb(140,140,140)" fill="none" stroke-linecap="square" stroke-width="1"></path><path id="line_0d82afcd429a05fe" d="M 199.390625 205 L 218 205 L 218 173.7421875 A 4 4 0 0 1 222 169.7421875 L 229.390625 169.7421875" p="2bc15334fcb9" stroke="rgb(140,140,140)" fill="none" stroke-linecap="square" stroke-width="1"></path><path id="line_5ba04a6abf3ddce3" d="M 320.09375 169.7421875 L 339 169.7421875 L 339 121.7421875 A 4 4 0 0 1 343 117.7421875 L 350.09375 117.7421875" p="0d82afcd429a05fe" stroke="rgb(140,140,140)" fill="none" stroke-linecap="square" stroke-width="1"></path><path id="line_996dd54928730170" d="M 320.09375 169.7421875 L 339 169.7421875 L 339 169.7421875 L 350.09375 169.7421875" p="0d82afcd429a05fe" stroke="rgb(140,140,140)" fill="none" stroke-linecap="square" stroke-width="1"></path><path id="line_088470de86dbbd74" d="M 416.390625 169.7421875 L 435 169.7421875 L 435 156.7421875 A 4 4 0 0 1 439 152.7421875 L 446.390625 152.7421875" p="996dd54928730170" stroke="rgb(140,140,140)" fill="none" stroke-linecap="square" stroke-width="1"></path><path id="line_de3e46a26a9ff6d5" d="M 416.390625 169.7421875 L 435 169.7421875 L 435 183.7421875 A 4 4 0 0 0 439 187.7421875 L 446.390625 187.7421875" p="996dd54928730170" stroke="rgb(140,140,140)" fill="none" stroke-linecap="square" stroke-width="1"></path><path id="line_476d6852acfbc0e0" d="M 505.296875 187.7421875 L 524 187.7421875 L 524 187.7421875 L 535.296875 187.7421875" p="de3e46a26a9ff6d5" stroke="rgb(140,140,140)" fill="none" stroke-linecap="square" stroke-width="1"></path><path id="line_c93a4d1e2881a842" d="M 320.09375 169.7421875 L 339 169.7421875 L 339 218.7421875 A 4 4 0 0 0 343 222.7421875 L 350.09375 222.7421875" p="0d82afcd429a05fe" stroke="rgb(140,140,140)" fill="none" stroke-linecap="square" stroke-width="1"></path><path id="line_ab96669a791b0ad9" d="M 642.328125 222.7421875 L 661 222.7421875 L 661 222.7421875 L 672.328125 222.7421875" p="8fc088d7c14e9c7e" stroke="rgb(140,140,140)" fill="none" stroke-linecap="square" stroke-width="1"></path><path id="line_6547c9c75c4f" d="M 199.390625 205 L 218 205 L 218 323.7421875 A 4 4 0 0 0 222 327.7421875 L 229.390625 327.7421875" p="2bc15334fcb9" stroke="rgb(140,140,140)" fill="none" stroke-linecap="square" stroke-width="1"></path><path id="line_6fe58db41496d660" d="M 298.75 327.7421875 L 317 327.7421875 L 317 278.7421875 A 4 4 0 0 1 321 274.7421875 L 328.75 274.7421875" p="6547c9c75c4f" stroke="rgb(140,140,140)" fill="none" stroke-linecap="square" stroke-width="1"></path><path id="line_2b63b2d845770015" d="M 374.296875 274.7421875 L 393 274.7421875 L 393 261.7421875 A 4 4 0 0 1 397 257.7421875 L 404.296875 257.7421875" p="6fe58db41496d660" stroke="rgb(140,140,140)" fill="none" stroke-linecap="square" stroke-width="1"></path><path id="line_94a02ff391bc632e" d="M 450.84375 257.7421875 L 469 257.7421875 L 469 257.7421875 L 480.84375 257.7421875" p="2b63b2d845770015" stroke="rgb(140,140,140)" fill="none" stroke-linecap="square" stroke-width="1"></path><path id="line_854d5f7b95b372de" d="M 374.296875 274.7421875 L 393 274.7421875 L 393 288.7421875 A 4 4 0 0 0 397 292.7421875 L 404.296875 292.7421875" p="6fe58db41496d660" stroke="rgb(140,140,140)" fill="none" stroke-linecap="square" stroke-width="1"></path><path id="line_388f84d902e87015" d="M 447.5 292.7421875 L 466 292.7421875 L 466 292.7421875 L 477.5 292.7421875" p="854d5f7b95b372de" stroke="rgb(140,140,140)" fill="none" stroke-linecap="square" stroke-width="1"></path><path id="line_db7cec40074f37e4" d="M 298.75 327.7421875 L 317 327.7421875 L 317 327.7421875 L 328.75 327.7421875" p="6547c9c75c4f" stroke="rgb(140,140,140)" fill="none" stroke-linecap="square" stroke-width="1"></path><path id="line_2c75c1df5708ea3c" d="M 298.75 327.7421875 L 317 327.7421875 L 317 358.7421875 A 4 4 0 0 0 321 362.7421875 L 328.75 362.7421875" p="6547c9c75c4f" stroke="rgb(140,140,140)" fill="none" stroke-linecap="square" stroke-width="1"></path><path id="line_1e75a8ce5f9aaa11" d="M 400.5625 362.7421875 L 419 362.7421875 L 419 362.7421875 L 430.5625 362.7421875" p="2c75c1df5708ea3c" stroke="rgb(140,140,140)" fill="none" stroke-linecap="square" stroke-width="1"></path><path id="line_2fef5c55987f99b2" d="M 298.75 327.7421875 L 317 327.7421875 L 317 393.7421875 A 4 4 0 0 0 321 397.7421875 L 328.75 397.7421875" p="6547c9c75c4f" stroke="rgb(140,140,140)" fill="none" stroke-linecap="square" stroke-width="1"></path><path id="line_41cfea2100375af5" d="M 377.9375 397.7421875 L 396 397.7421875 L 396 397.7421875 L 407.9375 397.7421875" p="2fef5c55987f99b2" stroke="rgb(140,140,140)" fill="none" stroke-linecap="square" stroke-width="1"></path></g><g transform="translate(0.5,0.5)"></g><g class="svg-summary-con" transform="translate(0.5,0.5)"><path id="sum_ed487f28fdf7957f" fill="none" stroke="#bf1e1b" stroke-width="1" d=" M 392 4 C 409 8 384 25 406 30 M 392 56 C 409 52 384 35 406 30" stroke-linecap="round"></path><path id="sum_e57b68b5f8cf6b2d" fill="none" stroke="#bf1e1b" stroke-width="1" d=" M 502 74 C 514 75 499 80 513 82 M 502 91 C 514 90 499 84 513 82" stroke-linecap="round"></path><path id="sum_23163b4bed1058ed" fill="none" stroke="#bf1e1b" stroke-width="1" d=" M 737 179 C 749 180 734 185 748 187 M 737 196 C 749 195 734 189 748 187" stroke-linecap="round"></path><path id="sum_19cdb5d2e0b1e66f" fill="none" stroke="#bf1e1b" stroke-width="1" d=" M 531 144 C 543 145 528 150 542 152 M 531 161 C 543 160 528 154 542 152" stroke-linecap="round"></path><path id="sum_179d70956f5477f0" fill="none" stroke="#bf1e1b" stroke-width="1" d=" M 420 109 C 432 110 417 115 431 117 M 420 126 C 432 125 417 119 431 117" stroke-linecap="round"></path><path id="sum_8fc088d7c14e9c7e" fill="none" stroke="#bf1e1b" stroke-width="1" d=" M 433 214 C 445 215 430 220 444 222 M 433 231 C 445 230 430 224 444 222" stroke-linecap="round"></path><path id="sum_6974e225b47c6838" fill="none" stroke="#bf1e1b" stroke-width="1" d=" M 481 389 C 493 390 478 395 492 397 M 481 406 C 493 405 478 399 492 397" stroke-linecap="round"></path><path id="sum_1670feed3ea3b2b8" fill="none" stroke="#bf1e1b" stroke-width="1" d=" M 504 354 C 516 355 501 360 515 362 M 504 371 C 516 370 501 364 515 362" stroke-linecap="round"></path></g><g class="svg-boundary-con" transform="translate(0.5,0.5)"></g></g><g transform="translate(30, 402.5)" id="sdjakdjak2"><g id="subline_root" transform="translate(0.5, 0.5)"></g><g transform="translate(0.5,0.5)"></g><g class="svg-summary-con" transform="translate(0.5,0.5)"></g><g class="svg-boundary-con" transform="translate(0.5,0.5)"></g></g><g transform="translate(779, 359)" id="sdjakdjak4"><g id="subline_e38204dde950eff8" transform="translate(0.5, 0.5)"><path id="line_196fe7d5a589778c" d="M 89.703125 30 L 108 30 L 108 16.7421875 A 4 4 0 0 1 112 12.7421875 L 119.703125 12.7421875" p="e38204dde950eff8" stroke="rgb(140,140,140)" fill="none" stroke-linecap="square" stroke-width="1"></path><path id="line_664d3218f50b9ecc" d="M 89.703125 30 L 108 30 L 108 43.7421875 A 4 4 0 0 0 112 47.7421875 L 119.703125 47.7421875" p="e38204dde950eff8" stroke="rgb(140,140,140)" fill="none" stroke-linecap="square" stroke-width="1"></path><path id="line_4e09670cbc67a9e7" d="M 208.828125 47.7421875 L 227 47.7421875 L 227 47.7421875 L 238.828125 47.7421875" p="664d3218f50b9ecc" stroke="rgb(140,140,140)" fill="none" stroke-linecap="square" stroke-width="1"></path></g><g transform="translate(0.5,0.5)"></g><g class="svg-summary-con" transform="translate(0.5,0.5)"><path id="sum_03d945f3d99df4e8" fill="none" stroke="#bf1e1b" stroke-width="1" d=" M 183 4 C 195 5 180 10 194 12 M 183 21 C 195 20 180 14 194 12" stroke-linecap="round"></path></g><g class="svg-boundary-con" transform="translate(0.5,0.5)"></g></g><g id="root"><rect x="30" y="402.5" rx="5px" ry="5px" width="106" height="66" style="fill: #50C28B; stroke:none;stroke-width:0px;"></rect><g><text text-anchor="start" align="top" anchor="start" font-size="26px" font-weight="normal" fill="rgb(255, 255, 255)" style="font-size:26px;font-family:微软雅黑;color:#fff;font-style:normal;text-align:left;font-weight:normal;"><tspan x="45" y="446"><tspan dx="0">nodes</tspan></tspan></text></g></g><g id="e38204dde950eff8"><rect x="779" y="367" rx="5px" ry="5px" width="90" height="43" style="fill: #ffffff; stroke:rgb(187,187,187);stroke-width:1px;"></rect><g><text text-anchor="start" align="top" anchor="start" font-size="17px" font-weight="normal" fill="rgb(68, 68, 68)" style="font-size:17px;font-family:微软雅黑;color:rgb(68,68,68);font-style:normal;text-align:left;font-weight:normal;"><tspan x="792" y="395"><tspan dx="0">selector</tspan></tspan></text></g></g><g id="196fe7d5a589778c"><rect x="898.703125" y="359" rx="1px" ry="1px" width="46" height="25" style="fill: transparent; stroke:none;stroke-width:0px;"></rect><g><text text-anchor="start" align="top" anchor="start" font-size="13px" font-weight="normal" fill="rgb(68, 68, 68)" style="font-size:13px;font-family:微软雅黑;color:rgb(68,68,68);font-style:normal;text-align:left;font-weight:normal;"><tspan x="908" y="376"><tspan dx="0">SELF</tspan></tspan></text></g></g><g id="03d945f3d99df4e8"><rect x="980.9375" y="359" rx="1px" ry="1px" width="147" height="25" style="fill: transparent; stroke:none;stroke-width:0px;"></rect><g><text text-anchor="start" align="top" anchor="start" font-size="13px" font-weight="normal" fill="rgb(68, 68, 68)" style="font-size:13px;font-family:微软雅黑;color:rgb(68,68,68);font-style:normal;text-align:left;font-weight:normal;"><tspan x="987" y="376"><tspan dx="0">Element: Parent Node</tspan></tspan></text></g></g><g id="664d3218f50b9ecc"><rect x="898.703125" y="394" rx="1px" ry="1px" width="89" height="25" style="fill: transparent; stroke:none;stroke-width:0px;"></rect><g><text text-anchor="start" align="top" anchor="start" font-size="13px" font-weight="normal" fill="rgb(68, 68, 68)" style="font-size:13px;font-family:微软雅黑;color:rgb(68,68,68);font-style:normal;text-align:left;font-weight:normal;"><tspan x="908" y="411"><tspan dx="0">css selector</tspan></tspan></text></g></g><g id="4e09670cbc67a9e7"><rect x="1017.828125" y="394" rx="1px" ry="1px" width="419" height="25" style="fill: transparent; stroke:none;stroke-width:0px;"></rect><g><text text-anchor="start" align="top" anchor="start" font-size="13px" font-weight="normal" fill="rgb(68, 68, 68)" style="font-size:13px;font-family:微软雅黑;color:rgb(68,68,68);font-style:normal;text-align:left;font-weight:normal;"><tspan x="1027" y="411"><tspan dx="0">Do not start with #[ unless preceded by single or double quotes.</tspan></tspan></text></g></g></svg>