<svg xmlns="http://www.w3.org/2000/svg" xlink="http://www.w3.org/1999/xlink" id="mind-svg-con" version="1.1" width="1154.46875px" height="921.916015625px" style="position: absolute; left: 0px; top: 0px; width: 1154.46875px; height: 921.916016px; background: rgb(250, 250, 250); z-index: 999;"><defs></defs><g id="svgbackgroundid"><defs></defs><rect x="0" y="0" width="1154.46875" height="921.916015625" fill="#fafafa"></rect></g><g transform="translate(-9917, -9520)" id="sdjakdjak3"><defs></defs><g class="svg-topic-con" transform="translate(0.5,0.5)"><path part="right" sub="true" id="line_81d9f5ea01439c2e" d="M 10000 9938 L 10000 9763 A 8 8 0 0 1 10008 9755 L 10113 9755" stroke="rgb(170,170,170)" fill="none" stroke-width="1"></path><path part="right" sub="true" id="line_2bc15334fcb9" d="M 10000 9938 L 10000 10148 A 8 8 0 0 0 10008 10156 L 10113 10156" stroke="rgb(170,170,170)" fill="none" stroke-width="1"></path></g><g class="svg-connection-con" transform="translate(0.5,0.5)"><g id="line_6100ddafc2f6560f" class="connection-svg"><path fill="none" d="M 10556.196875 10326C 10486 10498.5 9855 10424 9989.4 9971" class="connection-line" stroke-linejoin="round" stroke="rgb(113, 203, 45)" stroke-width="2"></path><path class="connection-end-arrow" fill="rgb(113, 203, 45)" stroke="rgb(113, 203, 45)" stroke-width="2" d="M9989.4 9971 L9991.7302055737 9980.724718092793 M9989.4 9971 L9982.143249873849 9977.88037626926 Z"></path><path class="connection-start-arrow" fill="rgb(113, 203, 45)" stroke="rgb(113, 203, 45)" stroke-width="2" d="M10556.196875 10326 Z"></path></g></g><g class="svg-freesums-con" transform="translate(0.5,0.5)"></g><g class="svg-freebos-con" transform="translate(0.5,0.5)"></g></g><g id="81d9f5ea01439c2e"><rect x="196" y="213" rx="5px" ry="5px" width="174" height="43" style="fill: #ffffff; stroke:rgb(187,187,187);stroke-width:1px;"></rect><g><text text-anchor="start" align="top" anchor="start" font-size="17px" font-weight="normal" fill="rgb(68, 68, 68)" style="font-size:17px;font-family:微软雅黑;color:rgb(68,68,68);font-style:normal;text-align:left;font-weight:normal;"><tspan x="209" y="241"><tspan dx="0">node_name(node)</tspan></tspan></text></g></g><g id="e38204dde950eff8"><rect x="400.03125" y="47" rx="1px" ry="1px" width="76" height="25" style="fill: transparent; stroke:none;stroke-width:0px;"></rect><g><text text-anchor="start" align="top" anchor="start" font-size="13px" font-weight="normal" fill="rgb(68, 68, 68)" style="font-size:13px;font-family:微软雅黑;color:rgb(68,68,68);font-style:normal;text-align:left;font-weight:normal;"><tspan x="409" y="64"><tspan dx="0">selector *</tspan></tspan></text></g></g><g id="196fe7d5a589778c"><rect x="506.515625" y="30" rx="1px" ry="1px" width="46" height="25" style="fill: transparent; stroke:none;stroke-width:0px;"></rect><g><text text-anchor="start" align="top" anchor="start" font-size="13px" font-weight="normal" fill="rgb(68, 68, 68)" style="font-size:13px;font-family:微软雅黑;color:rgb(68,68,68);font-style:normal;text-align:left;font-weight:normal;"><tspan x="516" y="47"><tspan dx="0">SELF</tspan></tspan></text></g></g><g id="03d945f3d99df4e8"><rect x="588.75" y="30" rx="1px" ry="1px" width="89" height="25" style="fill: transparent; stroke:none;stroke-width:0px;"></rect><g><text text-anchor="start" align="top" anchor="start" font-size="13px" font-weight="normal" fill="rgb(68, 68, 68)" style="font-size:13px;font-family:微软雅黑;color:rgb(68,68,68);font-style:normal;text-align:left;font-weight:normal;"><tspan x="595" y="47"><tspan dx="0">Element Self</tspan></tspan></text></g></g><g id="664d3218f50b9ecc"><rect x="506.515625" y="65" rx="1px" ry="1px" width="89" height="25" style="fill: transparent; stroke:none;stroke-width:0px;"></rect><g><text text-anchor="start" align="top" anchor="start" font-size="13px" font-weight="normal" fill="rgb(68, 68, 68)" style="font-size:13px;font-family:微软雅黑;color:rgb(68,68,68);font-style:normal;text-align:left;font-weight:normal;"><tspan x="516" y="82"><tspan dx="0">css selector</tspan></tspan></text></g></g><g id="5c86d46ff933d0ed"><rect x="400.03125" y="100" rx="1px" ry="1px" width="40" height="25" style="fill: transparent; stroke:none;stroke-width:0px;"></rect><g><text text-anchor="start" align="top" anchor="start" font-size="13px" font-weight="normal" fill="rgb(68, 68, 68)" style="font-size:13px;font-family:微软雅黑;color:rgb(68,68,68);font-style:normal;text-align:left;font-weight:normal;"><tspan x="409" y="117"><tspan dx="0">to_i</tspan></tspan></text></g></g><g id="5a5cc0826857011a"><rect x="400.03125" y="135" rx="1px" ry="1px" width="41" height="25" style="fill: transparent; stroke:none;stroke-width:0px;"></rect><g><text text-anchor="start" align="top" anchor="start" font-size="13px" font-weight="normal" fill="rgb(68, 68, 68)" style="font-size:13px;font-family:微软雅黑;color:rgb(68,68,68);font-style:normal;text-align:left;font-weight:normal;"><tspan x="409" y="152"><tspan dx="0">to_f</tspan></tspan></text></g></g><g id="92449585b2371510"><rect x="477.375" y="117.5" rx="1px" ry="1px" width="64" height="25" style="fill: transparent; stroke:none;stroke-width:0px;"></rect><g><text text-anchor="start" align="top" anchor="start" font-size="13px" font-weight="normal" fill="rgb(68, 68, 68)" style="font-size:13px;font-family:微软雅黑;color:rgb(68,68,68);font-style:normal;text-align:left;font-weight:normal;"><tspan x="483" y="135"><tspan dx="0">only key</tspan></tspan></text></g></g><g id="12256902a95f98a1"><rect x="400.03125" y="187" rx="1px" ry="1px" width="40" height="25" style="fill: transparent; stroke:none;stroke-width:0px;"></rect><g><text text-anchor="start" align="top" anchor="start" font-size="13px" font-weight="normal" fill="rgb(68, 68, 68)" style="font-size:13px;font-family:微软雅黑;color:rgb(68,68,68);font-style:normal;text-align:left;font-weight:normal;"><tspan x="409" y="204"><tspan dx="0">attr</tspan></tspan></text></g></g><g id="2b0d99f9234b5738"><rect x="469.875" y="170" rx="1px" ry="1px" width="132" height="25" style="fill: transparent; stroke:none;stroke-width:0px;"></rect><g><text text-anchor="start" align="top" anchor="start" font-size="13px" font-weight="normal" fill="rgb(68, 68, 68)" style="font-size:13px;font-family:微软雅黑;color:rgb(68,68,68);font-style:normal;text-align:left;font-weight:normal;"><tspan x="479" y="187"><tspan dx="0">Element attributes</tspan></tspan></text></g></g><g id="f6f0852cdf01a97f"><rect x="469.875" y="205" rx="1px" ry="1px" width="47" height="25" style="fill: transparent; stroke:none;stroke-width:0px;"></rect><g><text text-anchor="start" align="top" anchor="start" font-size="13px" font-weight="normal" fill="rgb(68, 68, 68)" style="font-size:13px;font-family:微软雅黑;color:rgb(68,68,68);font-style:normal;text-align:left;font-weight:normal;"><tspan x="479" y="222"><tspan dx="0">html</tspan></tspan></text></g></g><g id="d461439a6cef174b"><rect x="546.375" y="205" rx="1px" ry="1px" width="219" height="25" style="fill: transparent; stroke:none;stroke-width:0px;"></rect><g><text text-anchor="start" align="top" anchor="start" font-size="13px" font-weight="normal" fill="rgb(68, 68, 68)" style="font-size:13px;font-family:微软雅黑;color:rgb(68,68,68);font-style:normal;text-align:left;font-weight:normal;"><tspan x="555" y="222"><tspan dx="0">special attributes, retrieve HTML</tspan></tspan></text></g></g><g id="a54902a3b513da17"><rect x="400.03125" y="257" rx="1px" ry="1px" width="97" height="25" style="fill: transparent; stroke:none;stroke-width:0px;"></rect><g><text text-anchor="start" align="top" anchor="start" font-size="13px" font-weight="normal" fill="rgb(68, 68, 68)" style="font-size:13px;font-family:微软雅黑;color:rgb(68,68,68);font-style:normal;text-align:left;font-weight:normal;"><tspan x="409" y="274"><tspan dx="0">after_regular</tspan></tspan></text></g></g><g id="2090e975ad695e0d"><rect x="526.984375" y="240" rx="1px" ry="1px" width="52" height="25" style="fill: transparent; stroke:none;stroke-width:0px;"></rect><g><text text-anchor="start" align="top" anchor="start" font-size="13px" font-weight="normal" fill="rgb(68, 68, 68)" style="font-size:13px;font-family:微软雅黑;color:rgb(68,68,68);font-style:normal;text-align:left;font-weight:normal;"><tspan x="536" y="257"><tspan dx="0">regex</tspan></tspan></text></g></g><g id="0661fc9dbef9fc7e"><rect x="526.984375" y="275" rx="1px" ry="1px" width="63" height="25" style="fill: transparent; stroke:none;stroke-width:0px;"></rect><g><text text-anchor="start" align="top" anchor="start" font-size="13px" font-weight="normal" fill="rgb(68, 68, 68)" style="font-size:13px;font-family:微软雅黑;color:rgb(68,68,68);font-style:normal;text-align:left;font-weight:normal;"><tspan x="536" y="292"><tspan dx="0">replace</tspan></tspan></text></g></g><g id="ef06919bff968d5e"><rect x="400.03125" y="327" rx="1px" ry="1px" width="64" height="25" style="fill: transparent; stroke:none;stroke-width:0px;"></rect><g><text text-anchor="start" align="top" anchor="start" font-size="13px" font-weight="normal" fill="rgb(68, 68, 68)" style="font-size:13px;font-family:微软雅黑;color:rgb(68,68,68);font-style:normal;text-align:left;font-weight:normal;"><tspan x="409" y="344"><tspan dx="0">is_array</tspan></tspan></text></g></g><g id="9a867c048985f2e6"><rect x="494.515625" y="310" rx="1px" ry="1px" width="47" height="25" style="fill: transparent; stroke:none;stroke-width:0px;"></rect><g><text text-anchor="start" align="top" anchor="start" font-size="13px" font-weight="normal" fill="rgb(68, 68, 68)" style="font-size:13px;font-family:微软雅黑;color:rgb(68,68,68);font-style:normal;text-align:left;font-weight:normal;"><tspan x="504" y="327"><tspan dx="0">false</tspan></tspan></text></g></g><g id="98ed72989de9a8c1"><rect x="494.515625" y="345" rx="1px" ry="1px" width="43" height="25" style="fill: transparent; stroke:none;stroke-width:0px;"></rect><g><text text-anchor="start" align="top" anchor="start" font-size="13px" font-weight="normal" fill="rgb(68, 68, 68)" style="font-size:13px;font-family:微软雅黑;color:rgb(68,68,68);font-style:normal;text-align:left;font-weight:normal;"><tspan x="504" y="362"><tspan dx="0">true</tspan></tspan></text></g></g><g id="5f994eec0f01130f"><rect x="567.71875" y="345" rx="1px" ry="1px" width="304" height="25" style="fill: transparent; stroke:none;stroke-width:0px;"></rect><g><text text-anchor="start" align="top" anchor="start" font-size="13px" font-weight="normal" fill="rgb(68, 68, 68)" style="font-size:13px;font-family:微软雅黑;color:rgb(68,68,68);font-style:normal;text-align:left;font-weight:normal;"><tspan x="577" y="362"><tspan dx="0">js code like: $('.classname').map(el =&gt; el.val() )</tspan></tspan></text></g></g><g id="b973987b1329cd34"><rect x="400.03125" y="380" rx="1px" ry="1px" width="66" height="25" style="fill: transparent; stroke:none;stroke-width:0px;"></rect><g><text text-anchor="start" align="top" anchor="start" font-size="13px" font-weight="normal" fill="rgb(68, 68, 68)" style="font-size:13px;font-family:微软雅黑;color:rgb(68,68,68);font-style:normal;text-align:left;font-weight:normal;"><tspan x="409" y="397"><tspan dx="0">split_str</tspan></tspan></text></g></g><g id="95a8deacce18617c"><rect x="501.765625" y="380" rx="1px" ry="1px" width="299" height="25" style="fill: transparent; stroke:none;stroke-width:0px;"></rect><g><text text-anchor="start" align="top" anchor="start" font-size="13px" font-weight="normal" fill="rgb(68, 68, 68)" style="font-size:13px;font-family:微软雅黑;color:rgb(68,68,68);font-style:normal;text-align:left;font-weight:normal;"><tspan x="508" y="397"><tspan dx="0">js code like: value.split(split_str), return string[]</tspan></tspan></text></g></g><g id="976006d9d316a686"><rect x="400.03125" y="415" rx="1px" ry="1px" width="103" height="25" style="fill: transparent; stroke:none;stroke-width:0px;"></rect><g><text text-anchor="start" align="top" anchor="start" font-size="13px" font-weight="normal" fill="rgb(68, 68, 68)" style="font-size:13px;font-family:微软雅黑;color:rgb(68,68,68);font-style:normal;text-align:left;font-weight:normal;"><tspan x="409" y="432"><tspan dx="0">to_markdown</tspan></tspan></text></g></g><g id="d3b5418d186fb40a"><rect x="532.9375" y="415" rx="1px" ry="1px" width="203" height="25" style="fill: transparent; stroke:none;stroke-width:0px;"></rect><g><text text-anchor="start" align="top" anchor="start" font-size="13px" font-weight="normal" fill="rgb(68, 68, 68)" style="font-size:13px;font-family:微软雅黑;color:rgb(68,68,68);font-style:normal;text-align:left;font-weight:normal;"><tspan x="542" y="432"><tspan dx="0">Do not forget set { attr: html }</tspan></tspan></text></g></g><g id="2bc15334fcb9"><rect x="196" y="614" rx="5px" ry="5px" width="199" height="43" style="fill: #ffffff; stroke:rgb(187,187,187);stroke-width:1px;"></rect><g><text text-anchor="start" align="top" anchor="start" font-size="17px" font-weight="normal" fill="rgb(68, 68, 68)" style="font-size:17px;font-family:微软雅黑;color:rgb(68,68,68);font-style:normal;text-align:left;font-weight:normal;"><tspan x="209" y="642"><tspan dx="0">node_name(wrapper)</tspan></tspan></text></g></g><g id="fe2b687c43a09f57"><rect x="425.390625" y="483" rx="1px" ry="1px" width="69" height="25" style="fill: transparent; stroke:none;stroke-width:0px;"></rect><g><text text-anchor="start" align="top" anchor="start" font-size="13px" font-weight="normal" fill="rgb(68, 68, 68)" style="font-size:13px;font-family:微软雅黑;color:rgb(68,68,68);font-style:normal;text-align:left;font-weight:normal;"><tspan x="434" y="500"><tspan dx="0">position</tspan></tspan></text></g></g><g id="37d52b63e2541d46"><rect x="524.015625" y="466" rx="1px" ry="1px" width="47" height="25" style="fill: transparent; stroke:none;stroke-width:0px;"></rect><g><text text-anchor="start" align="top" anchor="start" font-size="13px" font-weight="normal" fill="rgb(68, 68, 68)" style="font-size:13px;font-family:微软雅黑;color:rgb(68,68,68);font-style:normal;text-align:left;font-weight:normal;"><tspan x="533" y="483"><tspan dx="0">false</tspan></tspan></text></g></g><g id="a30e61496d06a6e5"><rect x="524.015625" y="501" rx="1px" ry="1px" width="43" height="25" style="fill: transparent; stroke:none;stroke-width:0px;"></rect><g><text text-anchor="start" align="top" anchor="start" font-size="13px" font-weight="normal" fill="rgb(68, 68, 68)" style="font-size:13px;font-family:微软雅黑;color:rgb(68,68,68);font-style:normal;text-align:left;font-weight:normal;"><tspan x="533" y="518"><tspan dx="0">true</tspan></tspan></text></g></g><g id="ed487f28fdf7957f"><rect x="606.5625" y="483.5" rx="1px" ry="1px" width="112" height="25" style="fill: transparent; stroke:none;stroke-width:0px;"></rect><g><text text-anchor="start" align="top" anchor="start" font-size="13px" font-weight="normal" fill="rgb(68, 68, 68)" style="font-size:13px;font-family:微软雅黑;color:rgb(68,68,68);font-style:normal;text-align:left;font-weight:normal;"><tspan x="613" y="501"><tspan dx="0">enable position </tspan></tspan></text></g></g><g id="2a36d6fd9b3a42a6"><rect x="425.390625" y="536" rx="1px" ry="1px" width="158" height="25" style="fill: transparent; stroke:none;stroke-width:0px;"></rect><g><text text-anchor="start" align="top" anchor="start" font-size="13px" font-weight="normal" fill="rgb(68, 68, 68)" style="font-size:13px;font-family:微软雅黑;color:rgb(68,68,68);font-style:normal;text-align:left;font-weight:normal;"><tspan x="434" y="553"><tspan dx="0">remove_children_node</tspan></tspan></text></g></g><g id="ab8e97477d2bdd6a"><rect x="613.65625" y="536" rx="1px" ry="1px" width="67" height="25" style="fill: transparent; stroke:none;stroke-width:0px;"></rect><g><text text-anchor="start" align="top" anchor="start" font-size="13px" font-weight="normal" fill="rgb(68, 68, 68)" style="font-size:13px;font-family:微软雅黑;color:rgb(68,68,68);font-style:normal;text-align:left;font-weight:normal;"><tspan x="623" y="553"><tspan dx="0">selector</tspan></tspan></text></g></g><g id="e57b68b5f8cf6b2d"><rect x="716.375" y="536" rx="1px" ry="1px" width="119" height="25" style="fill: transparent; stroke:none;stroke-width:0px;"></rect><g><text text-anchor="start" align="top" anchor="start" font-size="13px" font-weight="normal" fill="rgb(68, 68, 68)" style="font-size:13px;font-family:微软雅黑;color:rgb(68,68,68);font-style:normal;text-align:left;font-weight:normal;"><tspan x="722" y="553"><tspan dx="0">remove Elements</tspan></tspan></text></g></g><g id="0d82afcd429a05fe"><rect x="425.390625" y="606" rx="1px" ry="1px" width="91" height="25" style="fill: transparent; stroke:none;stroke-width:0px;"></rect><g><text text-anchor="start" align="top" anchor="start" font-size="13px" font-weight="normal" fill="rgb(68, 68, 68)" style="font-size:13px;font-family:微软雅黑;color:rgb(68,68,68);font-style:normal;text-align:left;font-weight:normal;"><tspan x="434" y="623"><tspan dx="0">other_types</tspan></tspan></text></g></g><g id="5ba04a6abf3ddce3"><rect x="546.09375" y="571" rx="1px" ry="1px" width="53" height="25" style="fill: transparent; stroke:none;stroke-width:0px;"></rect><g><text text-anchor="start" align="top" anchor="start" font-size="13px" font-weight="normal" fill="rgb(68, 68, 68)" style="font-size:13px;font-family:微软雅黑;color:rgb(68,68,68);font-style:normal;text-align:left;font-weight:normal;"><tspan x="555" y="588"><tspan dx="0">name</tspan></tspan></text></g></g><g id="996dd54928730170"><rect x="546.09375" y="606" rx="1px" ry="1px" width="66" height="25" style="fill: transparent; stroke:none;stroke-width:0px;"></rect><g><text text-anchor="start" align="top" anchor="start" font-size="13px" font-weight="normal" fill="rgb(68, 68, 68)" style="font-size:13px;font-family:微软雅黑;color:rgb(68,68,68);font-style:normal;text-align:left;font-weight:normal;"><tspan x="555" y="623"><tspan dx="0">validate</tspan></tspan></text></g></g><g id="088470de86dbbd74"><rect x="642.390625" y="606" rx="1px" ry="1px" width="67" height="25" style="fill: transparent; stroke:none;stroke-width:0px;"></rect><g><text text-anchor="start" align="top" anchor="start" font-size="13px" font-weight="normal" fill="rgb(68, 68, 68)" style="font-size:13px;font-family:微软雅黑;color:rgb(68,68,68);font-style:normal;text-align:left;font-weight:normal;"><tspan x="651" y="623"><tspan dx="0">selector</tspan></tspan></text></g></g><g id="1a18b988ac9b2ce6"><rect x="745.109375" y="606" rx="1px" ry="1px" width="177" height="25" style="fill: transparent; stroke:none;stroke-width:0px;"></rect><g><text text-anchor="start" align="top" anchor="start" font-size="13px" font-weight="normal" fill="rgb(68, 68, 68)" style="font-size:13px;font-family:微软雅黑;color:rgb(68,68,68);font-style:normal;text-align:left;font-weight:normal;"><tspan x="751" y="623"><tspan dx="0">Validate: Contains Element</tspan></tspan></text></g></g><g id="de3e46a26a9ff6d5"><rect x="546.09375" y="641" rx="1px" ry="1px" width="59" height="25" style="fill: transparent; stroke:none;stroke-width:0px;"></rect><g><text text-anchor="start" align="top" anchor="start" font-size="13px" font-weight="normal" fill="rgb(68, 68, 68)" style="font-size:13px;font-family:微软雅黑;color:rgb(68,68,68);font-style:normal;text-align:left;font-weight:normal;"><tspan x="555" y="658"><tspan dx="0">except</tspan></tspan></text></g></g><g id="476d6852acfbc0e0"><rect x="635" y="641" rx="1px" ry="1px" width="67" height="25" style="fill: transparent; stroke:none;stroke-width:0px;"></rect><g><text text-anchor="start" align="top" anchor="start" font-size="13px" font-weight="normal" fill="rgb(68, 68, 68)" style="font-size:13px;font-family:微软雅黑;color:rgb(68,68,68);font-style:normal;text-align:left;font-weight:normal;"><tspan x="644" y="658"><tspan dx="0">selector</tspan></tspan></text></g></g><g id="23163b4bed1058ed"><rect x="737.71875" y="641" rx="1px" ry="1px" width="234" height="25" style="fill: transparent; stroke:none;stroke-width:0px;"></rect><g><text text-anchor="start" align="top" anchor="start" font-size="13px" font-weight="normal" fill="rgb(68, 68, 68)" style="font-size:13px;font-family:微软雅黑;color:rgb(68,68,68);font-style:normal;text-align:left;font-weight:normal;"><tspan x="744" y="658"><tspan dx="0">Validate: Does Not Contain Element</tspan></tspan></text></g></g><g id="6547c9c75c4f"><rect x="425.390625" y="728" rx="1px" ry="1px" width="69" height="25" style="fill: transparent; stroke:none;stroke-width:0px;"></rect><g><text text-anchor="start" align="top" anchor="start" font-size="13px" font-weight="normal" fill="rgb(68, 68, 68)" style="font-size:13px;font-family:微软雅黑;color:rgb(68,68,68);font-style:normal;text-align:left;font-weight:normal;"><tspan x="434" y="745"><tspan dx="0">wrapper</tspan></tspan></text></g></g><g id="6fe58db41496d660"><rect x="524.75" y="693" rx="1px" ry="1px" width="38" height="25" style="fill: transparent; stroke:none;stroke-width:0px;"></rect><g><text text-anchor="start" align="top" anchor="start" font-size="13px" font-weight="normal" fill="rgb(68, 68, 68)" style="font-size:13px;font-family:微软雅黑;color:rgb(68,68,68);font-style:normal;text-align:left;font-weight:normal;"><tspan x="534" y="710"><tspan dx="0">list</tspan></tspan></text></g></g><g id="2b63b2d845770015"><rect x="592.75" y="676" rx="1px" ry="1px" width="47" height="25" style="fill: transparent; stroke:none;stroke-width:0px;"></rect><g><text text-anchor="start" align="top" anchor="start" font-size="13px" font-weight="normal" fill="rgb(68, 68, 68)" style="font-size:13px;font-family:微软雅黑;color:rgb(68,68,68);font-style:normal;text-align:left;font-weight:normal;"><tspan x="602" y="693"><tspan dx="0">false</tspan></tspan></text></g></g><g id="94a02ff391bc632e"><rect x="669.296875" y="676" rx="1px" ry="1px" width="99" height="25" style="fill: transparent; stroke:none;stroke-width:0px;"></rect><g><text text-anchor="start" align="top" anchor="start" font-size="13px" font-weight="normal" fill="rgb(68, 68, 68)" style="font-size:13px;font-family:微软雅黑;color:rgb(68,68,68);font-style:normal;text-align:left;font-weight:normal;"><tspan x="678" y="693"><tspan dx="0">return object</tspan></tspan></text></g></g><g id="854d5f7b95b372de"><rect x="592.75" y="711" rx="1px" ry="1px" width="43" height="25" style="fill: transparent; stroke:none;stroke-width:0px;"></rect><g><text text-anchor="start" align="top" anchor="start" font-size="13px" font-weight="normal" fill="rgb(68, 68, 68)" style="font-size:13px;font-family:微软雅黑;color:rgb(68,68,68);font-style:normal;text-align:left;font-weight:normal;"><tspan x="602" y="728"><tspan dx="0">true</tspan></tspan></text></g></g><g id="388f84d902e87015"><rect x="665.953125" y="711" rx="1px" ry="1px" width="91" height="25" style="fill: transparent; stroke:none;stroke-width:0px;"></rect><g><text text-anchor="start" align="top" anchor="start" font-size="13px" font-weight="normal" fill="rgb(68, 68, 68)" style="font-size:13px;font-family:微软雅黑;color:rgb(68,68,68);font-style:normal;text-align:left;font-weight:normal;"><tspan x="675" y="728"><tspan dx="0">return array</tspan></tspan></text></g></g><g id="db7cec40074f37e4"><rect x="524.75" y="746" rx="1px" ry="1px" width="67" height="25" style="fill: transparent; stroke:none;stroke-width:0px;"></rect><g><text text-anchor="start" align="top" anchor="start" font-size="13px" font-weight="normal" fill="rgb(68, 68, 68)" style="font-size:13px;font-family:微软雅黑;color:rgb(68,68,68);font-style:normal;text-align:left;font-weight:normal;"><tspan x="534" y="763"><tspan dx="0">selector</tspan></tspan></text></g></g><g id="f03773a237f19224"><rect x="621.46875" y="746" rx="1px" ry="1px" width="54" height="25" style="fill: transparent; stroke:none;stroke-width:0px;"></rect><g><text text-anchor="start" align="top" anchor="start" font-size="13px" font-weight="normal" fill="rgb(68, 68, 68)" style="font-size:13px;font-family:微软雅黑;color:rgb(68,68,68);font-style:normal;text-align:left;font-weight:normal;"><tspan x="630" y="763"><tspan dx="0">string</tspan></tspan></text></g></g><g id="1d9402c33a8eb642"><rect x="705.09375" y="746" rx="1px" ry="1px" width="419" height="25" style="fill: transparent; stroke:none;stroke-width:0px;"></rect><g><text text-anchor="start" align="top" anchor="start" font-size="13px" font-weight="normal" fill="rgb(68, 68, 68)" style="font-size:13px;font-family:微软雅黑;color:rgb(68,68,68);font-style:normal;text-align:left;font-weight:normal;"><tspan x="714" y="763"><tspan dx="0">Do not start with #[ unless preceded by single or double quotes.</tspan></tspan></text></g></g><g id="2c75c1df5708ea3c"><rect x="524.75" y="781" rx="1px" ry="1px" width="62" height="25" style="fill: transparent; stroke:none;stroke-width:0px;"></rect><g><text text-anchor="start" align="top" anchor="start" font-size="13px" font-weight="normal" fill="rgb(68, 68, 68)" style="font-size:13px;font-family:微软雅黑;color:rgb(68,68,68);font-style:normal;text-align:left;font-weight:normal;"><tspan x="534" y="798"><tspan dx="0">normal</tspan></tspan></text></g></g><g id="1e75a8ce5f9aaa11"><rect x="616.796875" y="781" rx="1px" ry="1px" width="56" height="25" style="fill: transparent; stroke:none;stroke-width:0px;"></rect><g><text text-anchor="start" align="top" anchor="start" font-size="13px" font-weight="normal" fill="rgb(68, 68, 68)" style="font-size:13px;font-family:微软雅黑;color:rgb(68,68,68);font-style:normal;text-align:left;font-weight:normal;"><tspan x="626" y="798"><tspan dx="0">nodes</tspan></tspan></text></g></g><g transform="translate(196, 30)" id="sdjakdjak0"><g id="subline_81d9f5ea01439c2e" transform="translate(0.5, 0.5)"><path id="line_e38204dde950eff8" d="M 174.03125 205 L 193 205 L 193 33.7421875 A 4 4 0 0 1 197 29.7421875 L 204.03125 29.7421875" p="81d9f5ea01439c2e" stroke="rgb(140,140,140)" fill="none" stroke-linecap="square" stroke-width="1"></path><path id="line_196fe7d5a589778c" d="M 280.515625 29.7421875 L 299 29.7421875 L 299 16.7421875 A 4 4 0 0 1 303 12.7421875 L 310.515625 12.7421875" p="e38204dde950eff8" stroke="rgb(140,140,140)" fill="none" stroke-linecap="square" stroke-width="1"></path><path id="line_664d3218f50b9ecc" d="M 280.515625 29.7421875 L 299 29.7421875 L 299 43.7421875 A 4 4 0 0 0 303 47.7421875 L 310.515625 47.7421875" p="e38204dde950eff8" stroke="rgb(140,140,140)" fill="none" stroke-linecap="square" stroke-width="1"></path><path id="line_5c86d46ff933d0ed" d="M 174.03125 205 L 193 205 L 193 86.7421875 A 4 4 0 0 1 197 82.7421875 L 204.03125 82.7421875" p="81d9f5ea01439c2e" stroke="rgb(140,140,140)" fill="none" stroke-linecap="square" stroke-width="1"></path><path id="line_5a5cc0826857011a" d="M 174.03125 205 L 193 205 L 193 121.7421875 A 4 4 0 0 1 197 117.7421875 L 204.03125 117.7421875" p="81d9f5ea01439c2e" stroke="rgb(140,140,140)" fill="none" stroke-linecap="square" stroke-width="1"></path><path id="line_12256902a95f98a1" d="M 174.03125 205 L 193 205 L 193 173.7421875 A 4 4 0 0 1 197 169.7421875 L 204.03125 169.7421875" p="81d9f5ea01439c2e" stroke="rgb(140,140,140)" fill="none" stroke-linecap="square" stroke-width="1"></path><path id="line_2b0d99f9234b5738" d="M 243.875 169.7421875 L 262 169.7421875 L 262 156.7421875 A 4 4 0 0 1 266 152.7421875 L 273.875 152.7421875" p="12256902a95f98a1" stroke="rgb(140,140,140)" fill="none" stroke-linecap="square" stroke-width="1"></path><path id="line_f6f0852cdf01a97f" d="M 243.875 169.7421875 L 262 169.7421875 L 262 183.7421875 A 4 4 0 0 0 266 187.7421875 L 273.875 187.7421875" p="12256902a95f98a1" stroke="rgb(140,140,140)" fill="none" stroke-linecap="square" stroke-width="1"></path><path id="line_d461439a6cef174b" d="M 320.375 187.7421875 L 339 187.7421875 L 339 187.7421875 L 350.375 187.7421875" p="f6f0852cdf01a97f" stroke="rgb(140,140,140)" fill="none" stroke-linecap="square" stroke-width="1"></path><path id="line_a54902a3b513da17" d="M 174.03125 205 L 193 205 L 193 235.7421875 A 4 4 0 0 0 197 239.7421875 L 204.03125 239.7421875" p="81d9f5ea01439c2e" stroke="rgb(140,140,140)" fill="none" stroke-linecap="square" stroke-width="1"></path><path id="line_2090e975ad695e0d" d="M 300.984375 239.7421875 L 319 239.7421875 L 319 226.7421875 A 4 4 0 0 1 323 222.7421875 L 330.984375 222.7421875" p="a54902a3b513da17" stroke="rgb(140,140,140)" fill="none" stroke-linecap="square" stroke-width="1"></path><path id="line_0661fc9dbef9fc7e" d="M 300.984375 239.7421875 L 319 239.7421875 L 319 253.7421875 A 4 4 0 0 0 323 257.7421875 L 330.984375 257.7421875" p="a54902a3b513da17" stroke="rgb(140,140,140)" fill="none" stroke-linecap="square" stroke-width="1"></path><path id="line_ef06919bff968d5e" d="M 174.03125 205 L 193 205 L 193 305.7421875 A 4 4 0 0 0 197 309.7421875 L 204.03125 309.7421875" p="81d9f5ea01439c2e" stroke="rgb(140,140,140)" fill="none" stroke-linecap="square" stroke-width="1"></path><path id="line_9a867c048985f2e6" d="M 268.515625 309.7421875 L 287 309.7421875 L 287 296.7421875 A 4 4 0 0 1 291 292.7421875 L 298.515625 292.7421875" p="ef06919bff968d5e" stroke="rgb(140,140,140)" fill="none" stroke-linecap="square" stroke-width="1"></path><path id="line_98ed72989de9a8c1" d="M 268.515625 309.7421875 L 287 309.7421875 L 287 323.7421875 A 4 4 0 0 0 291 327.7421875 L 298.515625 327.7421875" p="ef06919bff968d5e" stroke="rgb(140,140,140)" fill="none" stroke-linecap="square" stroke-width="1"></path><path id="line_5f994eec0f01130f" d="M 341.71875 327.7421875 L 360 327.7421875 L 360 327.7421875 L 371.71875 327.7421875" p="98ed72989de9a8c1" stroke="rgb(140,140,140)" fill="none" stroke-linecap="square" stroke-width="1"></path><path id="line_b973987b1329cd34" d="M 174.03125 205 L 193 205 L 193 358.7421875 A 4 4 0 0 0 197 362.7421875 L 204.03125 362.7421875" p="81d9f5ea01439c2e" stroke="rgb(140,140,140)" fill="none" stroke-linecap="square" stroke-width="1"></path><path id="line_976006d9d316a686" d="M 174.03125 205 L 193 205 L 193 393.7421875 A 4 4 0 0 0 197 397.7421875 L 204.03125 397.7421875" p="81d9f5ea01439c2e" stroke="rgb(140,140,140)" fill="none" stroke-linecap="square" stroke-width="1"></path><path id="line_d3b5418d186fb40a" d="M 306.9375 397.7421875 L 325 397.7421875 L 325 397.7421875 L 336.9375 397.7421875" p="976006d9d316a686" stroke="rgb(140,140,140)" fill="none" stroke-linecap="square" stroke-width="1"></path></g><g transform="translate(0.5,0.5)"></g><g class="svg-summary-con" transform="translate(0.5,0.5)"><path id="sum_03d945f3d99df4e8" fill="none" stroke="#bf1e1b" stroke-width="1" d=" M 374 4 C 386 5 371 10 385 12 M 374 21 C 386 20 371 14 385 12" stroke-linecap="round"></path><path id="sum_92449585b2371510" fill="none" stroke="#bf1e1b" stroke-width="1" d=" M 263 74 C 280 78 255 95 277 100 M 263 126 C 280 122 255 105 277 100" stroke-linecap="round"></path><path id="sum_95a8deacce18617c" fill="none" stroke="#bf1e1b" stroke-width="1" d=" M 287 354 C 299 355 284 360 298 362 M 287 371 C 299 370 284 364 298 362" stroke-linecap="round"></path></g><g class="svg-boundary-con" transform="translate(0.5,0.5)"></g></g><g transform="translate(196, 466)" id="sdjakdjak1"><g id="subline_2bc15334fcb9" transform="translate(0.5, 0.5)"><path id="line_fe2b687c43a09f57" d="M 199.390625 170 L 218 170 L 218 33.7421875 A 4 4 0 0 1 222 29.7421875 L 229.390625 29.7421875" p="2bc15334fcb9" stroke="rgb(140,140,140)" fill="none" stroke-linecap="square" stroke-width="1"></path><path id="line_37d52b63e2541d46" d="M 298.015625 29.7421875 L 317 29.7421875 L 317 16.7421875 A 4 4 0 0 1 321 12.7421875 L 328.015625 12.7421875" p="fe2b687c43a09f57" stroke="rgb(140,140,140)" fill="none" stroke-linecap="square" stroke-width="1"></path><path id="line_a30e61496d06a6e5" d="M 298.015625 29.7421875 L 317 29.7421875 L 317 43.7421875 A 4 4 0 0 0 321 47.7421875 L 328.015625 47.7421875" p="fe2b687c43a09f57" stroke="rgb(140,140,140)" fill="none" stroke-linecap="square" stroke-width="1"></path><path id="line_2a36d6fd9b3a42a6" d="M 199.390625 170 L 218 170 L 218 86.7421875 A 4 4 0 0 1 222 82.7421875 L 229.390625 82.7421875" p="2bc15334fcb9" stroke="rgb(140,140,140)" fill="none" stroke-linecap="square" stroke-width="1"></path><path id="line_ab8e97477d2bdd6a" d="M 387.65625 82.7421875 L 406 82.7421875 L 406 82.7421875 L 417.65625 82.7421875" p="2a36d6fd9b3a42a6" stroke="rgb(140,140,140)" fill="none" stroke-linecap="square" stroke-width="1"></path><path id="line_0d82afcd429a05fe" d="M 199.390625 170 L 218 170 L 218 156.7421875 A 4 4 0 0 1 222 152.7421875 L 229.390625 152.7421875" p="2bc15334fcb9" stroke="rgb(140,140,140)" fill="none" stroke-linecap="square" stroke-width="1"></path><path id="line_5ba04a6abf3ddce3" d="M 320.09375 152.7421875 L 339 152.7421875 L 339 121.7421875 A 4 4 0 0 1 343 117.7421875 L 350.09375 117.7421875" p="0d82afcd429a05fe" stroke="rgb(140,140,140)" fill="none" stroke-linecap="square" stroke-width="1"></path><path id="line_996dd54928730170" d="M 320.09375 152.7421875 L 339 152.7421875 L 339 152.7421875 L 350.09375 152.7421875" p="0d82afcd429a05fe" stroke="rgb(140,140,140)" fill="none" stroke-linecap="square" stroke-width="1"></path><path id="line_088470de86dbbd74" d="M 416.390625 152.7421875 L 435 152.7421875 L 435 152.7421875 L 446.390625 152.7421875" p="996dd54928730170" stroke="rgb(140,140,140)" fill="none" stroke-linecap="square" stroke-width="1"></path><path id="line_de3e46a26a9ff6d5" d="M 320.09375 152.7421875 L 339 152.7421875 L 339 183.7421875 A 4 4 0 0 0 343 187.7421875 L 350.09375 187.7421875" p="0d82afcd429a05fe" stroke="rgb(140,140,140)" fill="none" stroke-linecap="square" stroke-width="1"></path><path id="line_476d6852acfbc0e0" d="M 409 187.7421875 L 427 187.7421875 L 427 187.7421875 L 439 187.7421875" p="de3e46a26a9ff6d5" stroke="rgb(140,140,140)" fill="none" stroke-linecap="square" stroke-width="1"></path><path id="line_6547c9c75c4f" d="M 199.390625 170 L 218 170 L 218 270.7421875 A 4 4 0 0 0 222 274.7421875 L 229.390625 274.7421875" p="2bc15334fcb9" stroke="rgb(140,140,140)" fill="none" stroke-linecap="square" stroke-width="1"></path><path id="line_6fe58db41496d660" d="M 298.75 274.7421875 L 317 274.7421875 L 317 243.7421875 A 4 4 0 0 1 321 239.7421875 L 328.75 239.7421875" p="6547c9c75c4f" stroke="rgb(140,140,140)" fill="none" stroke-linecap="square" stroke-width="1"></path><path id="line_2b63b2d845770015" d="M 366.75 239.7421875 L 385 239.7421875 L 385 226.7421875 A 4 4 0 0 1 389 222.7421875 L 396.75 222.7421875" p="6fe58db41496d660" stroke="rgb(140,140,140)" fill="none" stroke-linecap="square" stroke-width="1"></path><path id="line_94a02ff391bc632e" d="M 443.296875 222.7421875 L 462 222.7421875 L 462 222.7421875 L 473.296875 222.7421875" p="2b63b2d845770015" stroke="rgb(140,140,140)" fill="none" stroke-linecap="square" stroke-width="1"></path><path id="line_854d5f7b95b372de" d="M 366.75 239.7421875 L 385 239.7421875 L 385 253.7421875 A 4 4 0 0 0 389 257.7421875 L 396.75 257.7421875" p="6fe58db41496d660" stroke="rgb(140,140,140)" fill="none" stroke-linecap="square" stroke-width="1"></path><path id="line_388f84d902e87015" d="M 439.953125 257.7421875 L 458 257.7421875 L 458 257.7421875 L 469.953125 257.7421875" p="854d5f7b95b372de" stroke="rgb(140,140,140)" fill="none" stroke-linecap="square" stroke-width="1"></path><path id="line_db7cec40074f37e4" d="M 298.75 274.7421875 L 317 274.7421875 L 317 288.7421875 A 4 4 0 0 0 321 292.7421875 L 328.75 292.7421875" p="6547c9c75c4f" stroke="rgb(140,140,140)" fill="none" stroke-linecap="square" stroke-width="1"></path><path id="line_f03773a237f19224" d="M 395.46875 292.7421875 L 414 292.7421875 L 414 292.7421875 L 425.46875 292.7421875" p="db7cec40074f37e4" stroke="rgb(140,140,140)" fill="none" stroke-linecap="square" stroke-width="1"></path><path id="line_1d9402c33a8eb642" d="M 479.09375 292.7421875 L 498 292.7421875 L 498 292.7421875 L 509.09375 292.7421875" p="f03773a237f19224" stroke="rgb(140,140,140)" fill="none" stroke-linecap="square" stroke-width="1"></path><path id="line_2c75c1df5708ea3c" d="M 298.75 274.7421875 L 317 274.7421875 L 317 323.7421875 A 4 4 0 0 0 321 327.7421875 L 328.75 327.7421875" p="6547c9c75c4f" stroke="rgb(140,140,140)" fill="none" stroke-linecap="square" stroke-width="1"></path><path id="line_1e75a8ce5f9aaa11" d="M 390.796875 327.7421875 L 409 327.7421875 L 409 327.7421875 L 420.796875 327.7421875" p="2c75c1df5708ea3c" stroke="rgb(140,140,140)" fill="none" stroke-linecap="square" stroke-width="1"></path></g><g transform="translate(0.5,0.5)"></g><g class="svg-summary-con" transform="translate(0.5,0.5)"><path id="sum_ed487f28fdf7957f" fill="none" stroke="#bf1e1b" stroke-width="1" d=" M 392 4 C 409 8 384 25 406 30 M 392 56 C 409 52 384 35 406 30" stroke-linecap="round"></path><path id="sum_e57b68b5f8cf6b2d" fill="none" stroke="#bf1e1b" stroke-width="1" d=" M 502 74 C 514 75 499 80 513 82 M 502 91 C 514 90 499 84 513 82" stroke-linecap="round"></path><path id="sum_1a18b988ac9b2ce6" fill="none" stroke="#bf1e1b" stroke-width="1" d=" M 531 144 C 543 145 528 150 542 152 M 531 161 C 543 160 528 154 542 152" stroke-linecap="round"></path><path id="sum_23163b4bed1058ed" fill="none" stroke="#bf1e1b" stroke-width="1" d=" M 523 179 C 535 180 520 185 534 187 M 523 196 C 535 195 520 189 534 187" stroke-linecap="round"></path></g><g class="svg-boundary-con" transform="translate(0.5,0.5)"></g></g><g transform="translate(30, 385)" id="sdjakdjak2"><g id="subline_root" transform="translate(0.5, 0.5)"></g><g transform="translate(0.5,0.5)"></g><g class="svg-summary-con" transform="translate(0.5,0.5)"></g><g class="svg-boundary-con" transform="translate(0.5,0.5)"></g></g><g id="root"><rect x="30" y="385" rx="5px" ry="5px" width="106" height="66" style="fill: #50C28B; stroke:none;stroke-width:0px;"></rect><g><text text-anchor="start" align="top" anchor="start" font-size="26px" font-weight="normal" fill="rgb(255, 255, 255)" style="font-size:26px;font-family:微软雅黑;color:#fff;font-style:normal;text-align:left;font-weight:normal;"><tspan x="45" y="428"><tspan dx="0">nodes</tspan></tspan></text></g></g></svg>